<svg xmlns="http://www.w3.org/2000/svg" width="512" height="512" viewBox="0 0 512 512" version="1.1">
	<path d="M 165.251 28.486 C 150.500 32.624, 138.228 44.385, 132.930 59.460 C 125.155 81.581, 130.683 110.948, 147.207 135.300 C 151.806 142.079, 154.947 148.649, 154.978 151.559 C 154.990 152.691, 151.811 158.087, 147.914 163.550 C 138.818 176.301, 134.887 183.463, 131.204 194 C 126.131 208.515, 124.696 217.796, 125.254 232.500 C 125.525 239.650, 126.051 246.221, 126.424 247.103 C 126.977 248.412, 125.766 249.025, 119.800 250.456 C 113.460 251.977, 105.294 255.627, 106.202 256.535 C 106.371 256.704, 110.107 255.981, 114.504 254.929 C 118.902 253.877, 123.625 253.017, 125 253.019 C 127.565 253.022, 127.417 252.740, 133.666 269.539 C 133.878 270.111, 132.014 272.015, 129.522 273.771 C 124.663 277.196, 121.545 281.493, 120.052 286.825 C 118.275 293.164, 120.097 293.424, 123.470 287.313 C 126.389 282.024, 134.181 274.483, 135.976 275.210 C 136.370 275.370, 139.573 279.083, 143.096 283.461 C 150.716 292.935, 158.356 299.308, 170.327 306.175 C 175.182 308.960, 179.381 311.830, 179.659 312.553 C 179.936 313.275, 179.132 317.834, 177.871 322.683 C 176.208 329.081, 175.537 334.655, 175.423 343 L 175.267 354.500 170.179 362.500 C 167.261 367.089, 163.723 374.551, 161.880 380 C 159.113 388.187, 158.669 390.883, 158.668 399.500 C 158.667 414.317, 162.023 424.844, 170.941 438 C 172.619 440.475, 173.993 442.801, 173.996 443.168 C 173.998 443.536, 172.410 444.820, 170.467 446.021 C 165.152 449.305, 162 454.557, 162 460.129 C 162 464.196, 162.442 465.181, 165.458 467.829 C 172.079 473.642, 186.651 473.441, 211.500 467.192 C 220.300 464.980, 231.194 462.430, 235.709 461.527 C 244.612 459.746, 245.693 459.962, 251.327 464.649 C 255.076 467.767, 256.291 467.633, 261.704 463.500 C 264.225 461.575, 266.611 460, 267.006 460 C 268.781 460, 292.676 465.169, 304 468.002 C 327.292 473.830, 343.399 473.069, 349.470 465.853 C 354.190 460.244, 352.408 454.116, 343.933 446.815 L 338.791 442.385 347.318 436.190 C 366.324 422.381, 374.019 408.535, 373.988 388.201 C 373.963 372.080, 367.012 357.375, 355.513 349.117 C 350.235 345.326, 348.741 345.243, 346.106 348.592 L 344.067 351.184 340.784 348.890 C 336.199 345.688, 336.033 345.304, 336.015 337.932 C 336.007 334.320, 335.111 328.020, 334.024 323.932 C 331.015 312.620, 331.047 312.510, 338.250 308.878 C 351.969 301.960, 365.224 290.977, 372.134 280.803 C 374.301 277.611, 376.529 275, 377.085 275 C 378.876 275, 387.746 284.586, 390.142 289.111 C 392.442 293.455, 392.469 293.471, 392.810 290.643 C 393.341 286.231, 391.328 282.618, 384.955 276.539 L 379.104 270.957 382.308 261.729 L 385.513 252.500 390.713 252.714 C 393.596 252.833, 399.386 254.258, 403.707 255.914 L 411.500 258.900 408.057 255.966 C 404.326 252.787, 398.236 250.489, 390.759 249.441 C 386.214 248.803, 386.049 248.667, 386.759 246.138 C 387.167 244.687, 387.448 236.750, 387.385 228.500 C 387.288 215.880, 386.868 211.981, 384.737 203.926 C 381.420 191.386, 377.041 181.028, 370.401 170.012 C 367.430 165.085, 365 160.069, 365 158.865 C 365 154.859, 369.694 148.592, 379.333 139.730 C 393.832 126.398, 402.528 113.749, 408.020 98 C 410.771 90.110, 411.845 72.387, 410.085 63.908 C 407.262 50.312, 397.674 37.548, 386.268 32.203 C 381.148 29.804, 379.321 29.500, 370 29.500 C 359.999 29.500, 359.140 29.672, 351.931 33.115 C 339.442 39.079, 326.810 52.363, 319.232 67.500 C 314.781 76.391, 310.515 89.152, 307.504 102.579 C 306.034 109.135, 304.673 114.659, 304.480 114.853 C 304.286 115.046, 299.037 113.921, 292.814 112.353 C 281.978 109.620, 280.517 109.500, 258.217 109.505 L 234.933 109.510 234.001 106.005 C 233.489 104.077, 231.741 97.001, 230.117 90.281 C 227.014 77.439, 222.404 65.635, 216.831 56.262 C 212.749 49.398, 203.130 38.873, 197.222 34.809 C 187.941 28.423, 174.762 25.817, 165.251 28.486 M 165.898 58.289 C 155.749 65.125, 153.525 85.681, 160.633 106.957 C 163.684 116.087, 172.744 133.965, 174.701 134.716 C 175.492 135.019, 177.557 133.927, 179.316 132.277 C 183.216 128.619, 190.226 123.892, 195.250 121.533 C 197.313 120.564, 199 119.362, 199 118.861 C 199 117.056, 193.367 115.836, 186.709 116.200 C 180.038 116.563, 179.959 116.539, 182.209 114.792 C 186.266 111.644, 194.520 109.526, 198.663 110.571 C 203.067 111.681, 204.059 113.659, 200.834 114.901 C 196.513 116.565, 201.632 117.408, 207.502 116 C 215.407 114.103, 215.307 114.242, 214.024 106.897 C 208.852 77.284, 192.512 56, 174.952 56 C 170.714 56, 168.443 56.574, 165.898 58.289 M 359.584 58.524 C 349.917 62.193, 339.465 73.187, 332.509 87 C 327.660 96.630, 323.848 109.513, 323.662 116.901 L 323.500 123.303 331.866 129.057 C 336.467 132.221, 342.092 136.630, 344.366 138.855 L 348.500 142.900 359.891 127.664 C 366.156 119.285, 373.246 108.845, 375.647 104.464 C 386.235 85.146, 387.913 68.081, 379.973 60.474 C 377.316 57.929, 376.086 57.529, 370.216 57.299 C 366.082 57.138, 361.994 57.609, 359.584 58.524 M 177.419 79.075 C 175.724 79.567, 173.474 80.933, 172.419 82.109 L 170.500 84.249 174.485 82.125 C 176.677 80.956, 179.013 80, 179.676 80 C 180.339 80, 181.160 79.550, 181.500 79 C 182.216 77.841, 181.632 77.852, 177.419 79.075 M 359.500 81.934 C 360.600 82.377, 363.075 83.041, 365 83.408 C 368.474 84.070, 368.481 84.064, 366 82.573 C 364.625 81.747, 362.150 81.083, 360.500 81.099 C 357.982 81.122, 357.821 81.256, 359.500 81.934 M 181.500 85.733 C 178.672 86.441, 174.186 89.783, 172.941 92.110 C 172.038 93.797, 172.651 93.653, 177.193 91.112 C 180.112 89.479, 184.232 87.828, 186.349 87.442 C 189.024 86.954, 189.786 86.480, 188.849 85.885 C 187.410 84.974, 184.753 84.918, 181.500 85.733 M 351 88.237 C 348.724 89.248, 349.038 89.406, 354.500 90.002 C 357.800 90.361, 361.483 91.183, 362.684 91.828 C 365.566 93.374, 366.055 93.307, 365.347 91.463 C 363.912 87.722, 356.109 85.968, 351 88.237 M 182.013 95.275 C 179.647 96.526, 177.009 98.607, 176.151 99.900 L 174.590 102.250 178.674 100.166 C 180.921 99.020, 185.572 97.629, 189.012 97.076 C 195.956 95.957, 197.145 95.336, 194.971 93.961 C 192.388 92.327, 186.448 92.929, 182.013 95.275 M 345.500 96.464 C 342.535 97.821, 342.568 97.839, 348.282 97.919 C 351.462 97.963, 355.680 98.675, 357.654 99.500 C 363.051 101.755, 363.864 101.273, 360.234 97.971 C 356.537 94.608, 350.829 94.024, 345.500 96.464 M 182.815 104.902 C 177.856 108.047, 175.227 110.936, 178.586 109.550 C 184.211 107.228, 189.943 106, 195.159 106 C 201.102 106, 202.551 104.900, 199.066 103.035 C 195.168 100.949, 187.695 101.808, 182.815 104.902 M 342.250 104.491 C 340.462 105.268, 339 106.075, 339 106.284 C 339 106.493, 341.448 106.462, 344.439 106.214 C 348.606 105.868, 350.901 106.258, 354.255 107.881 C 359.674 110.505, 360.350 110.523, 359.006 108.010 C 356.550 103.423, 348.566 101.746, 342.250 104.491 M 340.250 113.491 C 338.462 114.268, 337 115.108, 337 115.357 C 337 115.606, 339.616 115.573, 342.814 115.283 C 347.081 114.896, 349.475 115.194, 351.814 116.404 C 354.580 117.834, 355 117.854, 355 116.551 C 355 114.624, 349.918 111.989, 346.300 112.039 C 344.760 112.061, 342.038 112.714, 340.250 113.491 M 240.829 118.956 C 224.904 120.285, 212.814 123.631, 198.976 130.538 C 157.229 151.377, 127.807 202.973, 135.092 242.566 C 135.692 245.830, 136.799 248.849, 137.550 249.276 C 138.302 249.703, 138.681 250.669, 138.392 251.422 C 136.499 256.355, 146.275 274.273, 156.485 284.583 C 172.292 300.544, 192.344 310.055, 221.839 315.581 C 245.564 320.026, 264.636 319.866, 293.520 314.978 C 313.295 311.631, 331.686 304.390, 345.500 294.513 C 352.789 289.301, 364.033 277.784, 366.503 273 C 367.497 271.075, 369.176 268.328, 370.235 266.896 C 372.732 263.519, 376.894 249.544, 378.245 240 C 382.137 212.516, 367.369 173.818, 344.529 151.648 C 327.594 135.211, 309.852 125.635, 287.500 120.869 C 277.060 118.642, 255.279 117.749, 240.829 118.956 M 337.441 123.562 C 335.612 125.034, 335.705 125.091, 339.059 124.552 C 341.017 124.238, 344.729 124.616, 347.309 125.393 C 352.323 126.902, 353.405 126.097, 349.777 123.557 C 346.913 121.550, 339.937 121.553, 337.441 123.562 M 189.459 155.880 C 184.568 158.101, 180 163.268, 180 166.577 C 180 169.716, 180.847 169.634, 186.822 165.920 C 192.542 162.364, 198.457 161.267, 203.127 162.895 C 205.784 163.821, 206.671 163.757, 207.875 162.554 C 209.069 161.360, 209.129 160.579, 208.190 158.517 C 206.039 153.796, 196.884 152.507, 189.459 155.880 M 304.635 156.073 C 299.965 159.746, 302.109 165.050, 307.443 163.021 C 312.196 161.214, 316.658 161.898, 323.544 165.487 C 330.437 169.080, 332 169.188, 332 166.076 C 332 157.765, 311.848 150.399, 304.635 156.073 M 183.257 192.068 C 176.728 194.641, 168.265 202.259, 164.740 208.736 C 159.991 217.462, 157.256 232, 160.364 232 C 161.114 232, 162.531 229.863, 163.511 227.250 C 166.795 218.501, 171.780 209.527, 175.036 206.500 C 176.811 204.850, 178.070 203.950, 177.834 204.500 C 177.597 205.050, 176.123 208.159, 174.556 211.408 C 167.917 225.183, 172.969 243.759, 185.455 251.478 C 189.783 254.154, 191.212 254.497, 197.922 254.477 C 206.954 254.449, 211.493 252.443, 217.660 245.753 C 232.262 229.912, 226.822 202.412, 207.193 192.833 C 200.604 189.618, 190.308 189.289, 183.257 192.068 M 302.222 193.047 C 295.111 196.600, 290.721 201.223, 287.117 208.954 C 284.945 213.614, 284.529 215.938, 284.516 223.500 C 284.502 231.356, 284.857 233.226, 287.306 238.214 C 296.802 257.551, 321.455 260.740, 333.476 244.187 C 340.729 234.200, 342.048 220.147, 336.641 210.473 C 333.156 204.237, 333.304 202.966, 337.098 206.563 C 338.801 208.178, 342.638 214.563, 345.622 220.750 C 348.607 226.938, 351.488 232, 352.025 232 C 353.685 232, 353.102 224.352, 350.940 217.771 C 345.296 200.594, 331.632 190, 315.122 190 C 309.541 190, 307.224 190.547, 302.222 193.047 M 194.223 211.557 C 189.956 214.545, 192.611 221, 198.106 221 C 201.382 221, 205 218.346, 205 215.943 C 205 213.304, 201.510 210, 198.723 210 C 197.470 210, 195.445 210.701, 194.223 211.557 M 309.223 211.557 C 304.956 214.545, 307.611 221, 313.106 221 C 316.610 221, 320 218.296, 320 215.500 C 320 212.832, 316.653 210, 313.500 210 C 312.370 210, 310.445 210.701, 309.223 211.557 M 156.940 249.857 C 147.994 253.399, 143.581 257.030, 145.717 259.089 C 146.148 259.504, 149.760 258.803, 153.745 257.530 C 157.730 256.258, 164.165 254.440, 168.046 253.489 C 173.504 252.151, 175.030 251.391, 174.790 250.130 C 174.322 247.673, 162.896 247.498, 156.940 249.857 M 336 249.362 C 336 251.428, 338.236 252.519, 345.500 253.997 C 348.800 254.669, 354.165 256.294, 357.422 257.609 C 366.727 261.366, 369.745 260.449, 364.396 255.491 C 359.372 250.835, 353.084 248.546, 344.250 248.158 C 337.271 247.851, 336 248.036, 336 249.362 M 241.392 253.422 C 240.422 255.950, 242.931 258.899, 247.120 260.154 C 249.369 260.828, 251.432 261.963, 251.707 262.678 C 252.531 264.827, 249.991 273.632, 247.899 275.878 C 245.081 278.903, 241.366 279.545, 237.458 277.681 C 234.666 276.350, 234.075 275.477, 233.813 272.296 C 233.526 268.814, 233.252 268.500, 230.500 268.500 C 227.770 268.500, 227.473 268.828, 227.195 272.153 C 226.952 275.074, 227.522 276.525, 230.038 279.391 C 235.432 285.534, 244.442 286.586, 250.545 281.786 L 253.293 279.624 257.046 281.784 C 265.388 286.585, 274.719 284.660, 279.742 277.102 C 282.413 273.082, 282.589 270.732, 280.384 268.527 C 278.161 266.304, 276.671 267.066, 275.903 270.819 C 274.639 277.001, 270.051 279.832, 264.348 277.950 C 260.403 276.648, 259.138 274.635, 258.087 267.987 C 257.187 262.296, 257.274 262.126, 262.416 259.500 C 267.114 257.101, 268.980 254.580, 267.301 252.901 C 266.430 252.030, 264.800 252.306, 260.638 254.031 L 255.128 256.315 249.212 254.157 C 242.207 251.603, 242.094 251.593, 241.392 253.422 M 164.500 256.661 C 163.400 256.896, 160.588 257.781, 158.250 258.627 C 154.846 259.859, 154 260.647, 154 262.583 C 154 263.912, 154.536 265, 155.190 265 C 157.499 265, 173 259.577, 173 258.769 C 173 257.954, 168.488 255.895, 167.185 256.116 C 166.808 256.180, 165.600 256.425, 164.500 256.661 M 339.695 256.703 C 338.702 256.959, 338.039 257.617, 338.222 258.165 C 338.503 259.009, 355.235 265.919, 357.143 265.980 C 358.742 266.030, 358.894 262.540, 357.365 260.851 C 355.019 258.259, 343.840 255.635, 339.695 256.703 M 189.196 317.672 C 185.244 325.220, 183.772 347.434, 186.586 357.068 C 188.879 364.921, 194.243 374.047, 199.310 378.718 C 204.374 383.386, 205.704 384.170, 212.371 386.417 C 218.518 388.488, 220.758 387.807, 221.542 383.626 C 222.797 376.936, 220.182 368.031, 211.960 351 C 206.556 339.807, 203.813 332.892, 203.432 329.500 C 202.428 320.558, 202.286 320.288, 197.755 318.701 C 195.415 317.882, 192.747 316.904, 191.827 316.528 C 190.730 316.080, 189.824 316.475, 189.196 317.672 M 314.250 319.198 L 308 321.174 308 326.052 C 308 332.877, 305.785 338.794, 298.474 351.500 C 290.638 365.120, 287.802 373.225, 288.203 380.857 L 288.500 386.500 292.672 386.804 C 301.481 387.445, 315.462 376.916, 321.423 365.152 C 325.811 356.493, 327.323 348.737, 326.718 338 C 326.191 328.632, 323.450 317.827, 321.500 317.428 C 320.950 317.315, 317.688 318.112, 314.250 319.198 M 211.568 327.114 C 212.303 332.193, 215.888 339.993, 223.005 351.995 C 229.473 362.905, 230.151 365.233, 230.725 378.520 C 231.205 389.636, 230.295 395.847, 227.656 399.455 C 226.313 401.292, 226.134 401.269, 221.708 398.675 C 214.235 394.295, 213.597 394.706, 214.335 403.430 C 215.664 419.162, 223.946 437.859, 232.594 444.654 C 238.871 449.586, 252.753 457.250, 255.410 457.250 C 258.757 457.250, 271.280 448.745, 278.035 441.883 C 287.262 432.513, 293.413 418.251, 294.677 403.298 C 295.384 394.923, 294.855 394.503, 288 398 C 285.844 399.100, 283.458 400, 282.698 400 C 280.756 400, 278.847 392.909, 278.255 383.500 C 277.434 370.427, 280.344 361.823, 291.350 344.788 C 297.264 335.634, 299 331.427, 299 326.242 C 299 323.026, 298.819 322.829, 296.428 323.429 C 279.300 327.728, 243.909 328.865, 227.500 325.644 C 222.550 324.672, 216.797 323.618, 214.716 323.302 L 210.933 322.728 211.568 327.114 M 350.047 356.376 C 349.551 357.682, 348.641 360.720, 348.025 363.126 C 347.410 365.532, 346.442 368.692, 345.874 370.149 C 345.034 372.303, 345.441 374.546, 348.048 382.141 C 350.832 390.247, 351.253 392.806, 351.237 401.491 C 351.224 408.824, 350.666 413.227, 349.150 417.957 C 348.012 421.508, 347.249 424.582, 347.455 424.788 C 348.286 425.619, 352.031 422.775, 356.038 418.269 C 368.025 404.791, 370.469 384.415, 362.088 367.830 C 359.048 361.813, 353.240 354, 351.808 354 C 351.336 354, 350.544 355.069, 350.047 356.376 M 177.526 367.319 C 174.310 372.228, 170.830 382.606, 169.790 390.385 C 166.529 414.799, 182.119 438.858, 206.349 446.805 C 213.127 449.028, 225 450.854, 225 449.674 C 225 449.337, 223.004 445.977, 220.565 442.206 C 214.055 432.143, 211.267 425.234, 206.961 408.500 C 203.414 394.713, 202.836 393.298, 199.814 391 C 193.018 385.833, 187.376 379.271, 183.694 372.250 C 181.602 368.262, 179.701 365, 179.469 365 C 179.236 365, 178.362 366.044, 177.526 367.319 M 327.092 372.183 C 322.764 379.852, 317.451 385.736, 311.304 389.668 C 308.387 391.535, 306 393.198, 306 393.365 C 306 393.532, 304.247 400.661, 302.105 409.206 C 297.907 425.951, 293.572 435.983, 286.930 444.326 C 284.768 447.040, 283 449.624, 283 450.068 C 283 450.511, 284.688 450.630, 286.750 450.332 C 304.055 447.832, 315.457 442.614, 325.606 432.548 C 336.309 421.933, 339.976 413.244, 339.976 398.500 C 339.976 387.888, 336.633 376.025, 331.630 368.882 C 330.189 366.825, 330.065 366.916, 327.092 372.183" stroke="none" fill="white" fill-rule="evenodd"/>
</svg>