<svg xmlns="http://www.w3.org/2000/svg" width="512" height="512" viewBox="0 0 512 512" version="1.1">
	<path d="M 241 36.489 C 231.347 38.656, 219.930 42.878, 216.281 45.628 C 207.952 51.906, 211.091 65.434, 222.191 71.098 C 224.358 72.203, 225.962 73.646, 225.756 74.304 C 225.550 74.962, 216.633 78.441, 205.941 82.036 C 184.773 89.153, 180.652 91.010, 171.276 97.654 C 163.936 102.855, 160.576 107.444, 155.583 119.091 C 152.019 127.403, 151.702 127.792, 145.821 131.091 C 128.532 140.787, 126.891 154.844, 141.546 167.699 C 146.964 172.452, 147.173 172.822, 147.665 178.560 C 148.011 182.582, 147.512 187.433, 146.122 193.584 C 143.577 204.844, 144.266 208.147, 150.322 213.729 C 152.681 215.904, 155.407 218.128, 156.379 218.672 C 157.870 219.507, 159.302 227.788, 165.527 271.581 C 172.490 320.555, 183.232 393.322, 186.515 413.739 C 188.328 425.016, 188.386 428.929, 186.750 429.497 C 177.193 432.817, 173.108 434.811, 169.869 437.737 C 166.665 440.632, 166 441.888, 166 445.044 C 166 448.226, 166.618 449.369, 169.750 451.974 C 177.973 458.816, 195.738 465.058, 218.619 469.146 C 229.695 471.125, 234.862 471.448, 255.500 471.451 C 278.941 471.455, 284.887 470.944, 303 467.370 C 327.560 462.524, 346.011 453.098, 345.996 445.406 C 345.988 441.138, 342.194 437.167, 334.803 433.693 C 330.786 431.804, 326.712 429.990, 325.750 429.661 C 323.738 428.973, 323.620 427.472, 324.982 419.934 C 325.942 414.621, 331.083 375.348, 340.950 297.964 C 343.653 276.769, 347.109 250.669, 348.630 239.964 L 351.395 220.500 354.791 217.500 C 356.659 215.850, 359.319 212.575, 360.704 210.223 L 363.221 205.947 361.611 197.953 C 360.725 193.557, 360 185.930, 360 181.005 L 360 172.051 363.060 170.469 C 368.022 167.903, 374.177 161.797, 376.134 157.500 C 380.527 147.855, 377.012 138.408, 366.645 132 C 361.906 129.071, 360.815 127.848, 359.956 124.500 C 357.873 116.382, 355.800 112.054, 351.840 107.556 C 340.433 94.596, 318.192 84.078, 288.500 77.599 C 281.900 76.159, 275.398 74.729, 274.052 74.422 C 269.549 73.393, 274.034 72.032, 282 72.010 C 292.730 71.979, 301.019 70.426, 303.453 67.989 C 305.094 66.346, 305.512 64.608, 305.558 59.220 C 305.590 55.524, 305.981 50.849, 306.426 48.830 C 307.208 45.284, 307.106 45.095, 303.368 43.209 C 301.241 42.136, 294.325 40.015, 288 38.495 C 273.720 35.066, 251.551 34.119, 241 36.489 M 256.500 54.593 C 230.133 58.128, 225.282 60.262, 231.250 65.703 C 237.315 71.232, 253.548 71.515, 265.500 66.301 C 270.304 64.205, 274.828 63.065, 279.920 62.668 C 284.630 62.300, 287.906 61.522, 288.889 60.540 C 290.286 59.143, 290.221 58.776, 288.219 56.775 C 286.174 54.730, 284.971 54.543, 272.751 54.374 C 265.463 54.273, 258.150 54.372, 256.500 54.593 M 226.500 87.627 C 223.750 88.918, 220.973 89.980, 220.329 89.987 C 219.685 89.994, 215.605 91.499, 211.262 93.330 C 200.926 97.689, 185.373 107.824, 179.681 113.909 C 175.612 118.260, 169 129.415, 169 131.929 C 169 133.077, 179.233 136.219, 190 138.379 C 211.390 142.669, 246.512 145.580, 264 144.513 C 283.172 143.343, 308.275 139.154, 321.750 134.877 C 326.086 133.500, 325.988 130.950, 321.330 123.987 C 313.279 111.950, 296.796 98.921, 279.597 91.001 C 266.225 84.843, 265.772 84.879, 271.948 91.610 C 278.151 98.371, 289.204 113.129, 288.553 113.780 C 287.924 114.409, 282.787 110.687, 272.715 102.307 C 264.315 95.318, 255.653 90, 252.670 90 C 251.675 90, 251.127 91.823, 250.765 96.340 C 250.455 100.196, 249.154 105.136, 247.441 108.951 C 244.858 114.708, 244.554 115.029, 243.738 112.862 C 243.250 111.563, 242.990 105.919, 243.161 100.320 C 243.333 94.721, 243.224 89.891, 242.920 89.586 C 242.337 89.004, 225.631 102.197, 215.560 111.194 C 212.294 114.112, 209.936 115.662, 210.322 114.638 C 211.762 110.815, 220.700 98.370, 226.390 92.265 C 229.629 88.790, 232.104 85.796, 231.890 85.613 C 231.675 85.430, 229.250 86.336, 226.500 87.627 M 345 140.117 C 323.611 148.069, 309.462 151.682, 288 154.670 C 270.477 157.110, 229.304 157.088, 212.500 154.630 C 190.455 151.405, 169.666 146.369, 158.750 141.608 C 154.171 139.612, 153.993 140.784, 158.155 145.524 C 168.690 157.523, 198.230 162.993, 252.500 162.997 C 288.211 162.999, 309.325 160.623, 329.362 154.348 C 342.954 150.091, 355.472 142.190, 353.550 139.081 C 352.633 137.597, 351.364 137.751, 345 140.117 M 159.385 176.643 C 163.043 178.624, 181.608 183.312, 194 185.383 C 213.012 188.561, 224.005 189.326, 250 189.279 C 289.010 189.209, 318.424 185.624, 341.500 178.127 C 353.244 174.312, 349.184 174.092, 329.136 177.457 C 299.039 182.508, 286.901 183.411, 248.500 183.457 C 209.853 183.503, 198.730 182.628, 172 177.436 C 157.525 174.624, 155.413 174.491, 159.385 176.643 M 319.078 236.564 C 314.995 237.865, 309.782 239.210, 307.493 239.553 C 305.204 239.897, 302.813 240.498, 302.179 240.889 C 300.926 241.663, 300.291 251.716, 296.989 323 C 295.139 362.934, 293.031 405.875, 291.402 436.800 L 290.754 449.100 293.627 448.409 C 295.207 448.030, 298.826 446.864, 301.669 445.818 C 306.389 444.082, 306.890 443.595, 307.431 440.208 C 308.110 435.961, 318.883 336.750, 322.005 306 C 323.149 294.725, 325.191 275.692, 326.543 263.704 C 329.354 238.769, 329.550 233.956, 327.750 234.099 C 327.063 234.154, 323.160 235.263, 319.078 236.564 M 182.729 239.132 C 180.432 240.417, 180.484 245.700, 183.018 268.500 C 185.514 290.954, 200.807 412.691, 201.516 415.750 C 202.100 418.266, 204 418.835, 204 416.493 C 204 415.665, 203.305 410.377, 202.455 404.743 C 199.676 386.322, 191.118 311.940, 189.541 292.500 C 188.693 282.050, 187.549 267.979, 187 261.231 C 186.450 254.483, 186 246.747, 186 244.040 C 186 238.649, 185.346 237.667, 182.729 239.132 M 208 243.431 C 208 244.360, 208.911 263.206, 210.024 285.310 C 212.320 330.908, 217.043 393.888, 220.148 420.297 C 221.299 430.085, 221.945 438.388, 221.585 438.748 C 221.225 439.109, 217.563 437.738, 213.448 435.702 C 209.334 433.666, 205.524 432, 204.983 432 C 203.714 432, 203.738 434.682, 205.065 440.868 C 206.023 445.333, 206.521 445.991, 210.001 447.384 C 217.630 450.436, 234.265 454.071, 243.331 454.667 C 252.927 455.297, 268.734 454.401, 270.825 453.108 C 271.745 452.540, 271.544 450.016, 269.974 442.432 C 261.737 402.624, 250.750 303.539, 248.748 251 L 248.500 244.500 234.500 243.898 C 226.800 243.567, 217.688 242.946, 214.250 242.519 C 208.743 241.834, 208 241.943, 208 243.431" stroke="none" fill="black" fill-rule="evenodd"/>
</svg>